<svg width="36" height="36" viewBox="0 0 36 36" fill="none" xmlns="http://www.w3.org/2000/svg">
<g clip-path="url(#clip0_2054_154)">
<path d="M10.2114 0C10.5456 0 10.8661 0.13275 11.1024 0.369045C11.3387 0.605341 11.4714 0.925827 11.4714 1.26V3.6162H25.002V1.2762C25.002 0.942027 25.1347 0.621541 25.371 0.385245C25.6073 0.14895 25.9278 0.0162 26.262 0.0162C26.5962 0.0162 26.9167 0.14895 27.153 0.385245C27.3892 0.621541 27.522 0.942027 27.522 1.2762V3.6162H32.4C33.3545 3.6162 34.2699 3.99524 34.9449 4.66998C35.62 5.34472 35.9995 6.25993 36 7.2144V32.4018C35.9995 33.3563 35.62 34.2715 34.9449 34.9462C34.2699 35.621 33.3545 36 32.4 36H3.6C2.64553 36 1.73013 35.621 1.05505 34.9462C0.379972 34.2715 0.000477234 33.3563 0 32.4018L0 7.2144C0.000477234 6.25993 0.379972 5.34472 1.05505 4.66998C1.73013 3.99524 2.64553 3.6162 3.6 3.6162H8.9514V1.2582C8.95188 0.924339 9.08484 0.604315 9.32108 0.368409C9.55733 0.132502 9.87754 -3.40674e-07 10.2114 0ZM2.52 13.9356V32.4018C2.52 32.5436 2.54794 32.6841 2.60221 32.8151C2.65649 32.9461 2.73604 33.0652 2.83632 33.1655C2.93661 33.2658 3.05567 33.3453 3.1867 33.3996C3.31773 33.4539 3.45817 33.4818 3.6 33.4818H32.4C32.5418 33.4818 32.6823 33.4539 32.8133 33.3996C32.9443 33.3453 33.0634 33.2658 33.1637 33.1655C33.264 33.0652 33.3435 32.9461 33.3978 32.8151C33.4521 32.6841 33.48 32.5436 33.48 32.4018V13.9608L2.52 13.9356ZM12.0006 26.3142V29.313H9V26.3142H12.0006ZM19.4994 26.3142V29.313H16.5006V26.3142H19.4994ZM27 26.3142V29.313H23.9994V26.3142H27ZM12.0006 19.1556V22.1544H9V19.1556H12.0006ZM19.4994 19.1556V22.1544H16.5006V19.1556H19.4994ZM27 19.1556V22.1544H23.9994V19.1556H27ZM8.9514 6.1344H3.6C3.45817 6.1344 3.31773 6.16233 3.1867 6.21661C3.05567 6.27088 2.93661 6.35044 2.83632 6.45072C2.73604 6.55101 2.65649 6.67007 2.60221 6.8011C2.54794 6.93213 2.52 7.07257 2.52 7.2144V11.4174L33.48 11.4426V7.2144C33.48 7.07257 33.4521 6.93213 33.3978 6.8011C33.3435 6.67007 33.264 6.55101 33.1637 6.45072C33.0634 6.35044 32.9443 6.27088 32.8133 6.21661C32.6823 6.16233 32.5418 6.1344 32.4 6.1344H27.522V7.8066C27.522 8.14077 27.3892 8.46126 27.153 8.69755C26.9167 8.93385 26.5962 9.0666 26.262 9.0666C25.9278 9.0666 25.6073 8.93385 25.371 8.69755C25.1347 8.46126 25.002 8.14077 25.002 7.8066V6.1344H11.4714V7.7904C11.4714 8.12457 11.3387 8.44506 11.1024 8.68135C10.8661 8.91765 10.5456 9.0504 10.2114 9.0504C9.87723 9.0504 9.55674 8.91765 9.32045 8.68135C9.08415 8.44506 8.9514 8.12457 8.9514 7.7904V6.1344Z" fill="white"/>
</g>
<defs>
<clipPath id="clip0_2054_154">
<rect width="36" height="36" fill="white"/>
</clipPath>
</defs>
</svg>
