<svg width="26" height="26" viewBox="0 0 26 26" fill="none" xmlns="http://www.w3.org/2000/svg">
<path d="M1 23.1538V2.84615C1 2.35652 1.1945 1.88695 1.54073 1.54073C1.88695 1.1945 2.35652 1 2.84615 1H23.1538C23.6435 1 24.1131 1.1945 24.4593 1.54073C24.8055 1.88695 25 2.35652 25 2.84615V23.1538C25 23.6435 24.8055 24.1131 24.4593 24.4593C24.1131 24.8055 23.6435 25 23.1538 25H17.6154V16.2492H18.9262C19.2248 16.2492 19.5113 16.1306 19.7225 15.9194C19.9337 15.7082 20.0523 15.4218 20.0523 15.1231V13.7015C20.0523 13.4029 19.9337 13.1164 19.7225 12.9052C19.5113 12.694 19.2248 12.5754 18.9262 12.5754H17.6892V10.84C17.6892 9.28923 18.3908 9.28923 19.0923 9.28923H19.9969C20.1455 9.29535 20.2936 9.26876 20.4308 9.21134C20.568 9.15392 20.6909 9.06707 20.7908 8.95692C20.8981 8.85478 20.983 8.7315 21.0402 8.59485C21.0974 8.45821 21.1256 8.31119 21.1231 8.16308V6.79692C21.128 6.64659 21.1033 6.49676 21.0502 6.356C20.9972 6.21524 20.917 6.08631 20.8141 5.97657C20.7112 5.86684 20.5877 5.77846 20.4507 5.71649C20.3136 5.65451 20.1657 5.62016 20.0154 5.61538H17.8923C17.2728 5.5921 16.6557 5.70356 16.0835 5.94207C15.5113 6.18059 14.9977 6.54047 14.5781 6.99687C14.1586 7.45326 13.8432 7.99528 13.6536 8.5855C13.464 9.17571 13.4047 9.80005 13.48 10.4154V12.5754H12.2985C12.149 12.5729 12.0006 12.6003 11.8618 12.6558C11.7231 12.7112 11.5967 12.7938 11.4902 12.8986C11.3837 13.0034 11.299 13.1284 11.2413 13.2663C11.1836 13.4041 11.1538 13.5521 11.1538 13.7015V15.1231C11.1538 15.2725 11.1836 15.4205 11.2413 15.5583C11.299 15.6962 11.3837 15.8212 11.4902 15.926C11.5967 16.0308 11.7231 16.1134 11.8618 16.1689C12.0006 16.2244 12.149 16.2517 12.2985 16.2492H13.48V25H2.84615C2.35652 25 1.88695 24.8055 1.54073 24.4593C1.1945 24.1131 1 23.6435 1 23.1538Z" stroke="white" stroke-width="2" stroke-linecap="round" stroke-linejoin="round"/>
</svg>
