<svg width="24" height="21" viewBox="0 0 24 21" fill="none" xmlns="http://www.w3.org/2000/svg">
<path d="M6 10.5C6 10.2045 6.0582 9.91194 6.17127 9.63896C6.28434 9.36598 6.45008 9.11794 6.65901 8.90901C6.86794 8.70008 7.11598 8.53434 7.38896 8.42127C7.66194 8.3082 7.95453 8.25 8.25 8.25C8.54547 8.25 8.83806 8.3082 9.11104 8.42127C9.38402 8.53434 9.63206 8.70008 9.84099 8.90901C10.0499 9.11794 10.2157 9.36598 10.3287 9.63896C10.4418 9.91194 10.5 10.2045 10.5 10.5C10.5 11.0967 10.2629 11.669 9.84099 12.091C9.41903 12.5129 8.84674 12.75 8.25 12.75C7.65326 12.75 7.08097 12.5129 6.65901 12.091C6.23705 11.669 6 11.0967 6 10.5ZM17.25 8.25C16.6533 8.25 16.081 8.48705 15.659 8.90901C15.2371 9.33097 15 9.90326 15 10.5C15 11.0967 15.2371 11.669 15.659 12.091C16.081 12.5129 16.6533 12.75 17.25 12.75C17.8467 12.75 18.419 12.5129 18.841 12.091C19.2629 11.669 19.5 11.0967 19.5 10.5C19.5 9.90326 19.2629 9.33097 18.841 8.90901C18.419 8.48705 17.8467 8.25 17.25 8.25Z" fill="white"/>
<path d="M0 0.75C0 0.551088 0.0790176 0.360322 0.21967 0.21967C0.360322 0.0790176 0.551088 0 0.75 0H2.25C2.44891 0 2.63968 0.0790176 2.78033 0.21967C2.92098 0.360322 3 0.551088 3 0.75V4.5H23.25C23.4489 4.5 23.6397 4.57902 23.7803 4.71967C23.921 4.86032 24 5.05109 24 5.25V15.75C24 15.9489 23.921 16.1397 23.7803 16.2803C23.6397 16.421 23.4489 16.5 23.25 16.5H3V20.25C3 20.4489 2.92098 20.6397 2.78033 20.7803C2.63968 20.921 2.44891 21 2.25 21C2.05109 21 1.86032 20.921 1.71967 20.7803C1.57902 20.6397 1.5 20.4489 1.5 20.25V1.5H0.75C0.551088 1.5 0.360322 1.42098 0.21967 1.28033C0.0790176 1.13968 0 0.948912 0 0.75ZM8.25 6.75C7.25544 6.75 6.30161 7.14509 5.59835 7.84835C4.89509 8.55161 4.5 9.50544 4.5 10.5C4.5 11.4946 4.89509 12.4484 5.59835 13.1517C6.30161 13.8549 7.25544 14.25 8.25 14.25C9.24456 14.25 10.1984 13.8549 10.9017 13.1517C11.6049 12.4484 12 11.4946 12 10.5C12 9.50544 11.6049 8.55161 10.9017 7.84835C10.1984 7.14509 9.24456 6.75 8.25 6.75ZM13.5 10.5C13.5 11.4946 13.8951 12.4484 14.5983 13.1517C15.3016 13.8549 16.2554 14.25 17.25 14.25C18.2446 14.25 19.1984 13.8549 19.9016 13.1517C20.6049 12.4484 21 11.4946 21 10.5C21 9.50544 20.6049 8.55161 19.9016 7.84835C19.1984 7.14509 18.2446 6.75 17.25 6.75C16.2554 6.75 15.3016 7.14509 14.5983 7.84835C13.8951 8.55161 13.5 9.50544 13.5 10.5Z" fill="white"/>
<path d="M4.5 17.25H9.75V18.75C9.75 18.9489 9.67098 19.1397 9.53033 19.2803C9.38968 19.421 9.19891 19.5 9 19.5H5.25C5.05109 19.5 4.86032 19.421 4.71967 19.2803C4.57902 19.1397 4.5 18.9489 4.5 18.75V17.25ZM10.5 18.75V17.25H16.5V18.75C16.5 18.9489 16.421 19.1397 16.2803 19.2803C16.1397 19.421 15.9489 19.5 15.75 19.5H11.25C11.0511 19.5 10.8603 19.421 10.7197 19.2803C10.579 19.1397 10.5 18.9489 10.5 18.75Z" fill="white"/>
</svg>
