<svg width="26" height="26" viewBox="0 0 26 26" fill="none" xmlns="http://www.w3.org/2000/svg">
<path d="M19 1H7C3.68629 1 1 3.68629 1 7V19C1 22.3137 3.68629 25 7 25H19C22.3137 25 25 22.3137 25 19V7C25 3.68629 22.3137 1 19 1Z" stroke="white" stroke-width="2" stroke-linecap="round" stroke-linejoin="round"/>
<path d="M19.6 6.3999H19.612M17.8 12.2439C17.9481 13.2426 17.7775 14.2626 17.3125 15.1587C16.8475 16.0549 16.1118 16.7816 15.21 17.2355C14.3082 17.6894 13.2862 17.8474 12.2894 17.687C11.2926 17.5266 10.3718 17.056 9.65785 16.3421C8.94394 15.6282 8.47332 14.7074 8.31292 13.7106C8.15252 12.7138 8.31052 11.6918 8.76443 10.79C9.21834 9.88813 9.94506 9.15239 10.8412 8.68739C11.7374 8.22239 12.7573 8.05181 13.756 8.1999C14.7747 8.35096 15.7179 8.82566 16.4461 9.55387C17.1743 10.2821 17.649 11.2252 17.8 12.2439Z" stroke="white" stroke-width="2" stroke-linecap="round" stroke-linejoin="round"/>
</svg>
