<svg width="88" height="40" viewBox="0 0 88 40" fill="none" xmlns="http://www.w3.org/2000/svg">
<rect x="0.5" y="0.5" width="87" height="39" rx="15.5" stroke="#FF5733"/>
<g filter="url(#filter0_d_3_653)">
<path d="M32.3906 21.9453V23.5H26.6797V21.9453H32.3906ZM27.2266 12.125V23.5H25.2656V12.125H27.2266ZM33.3594 19.3672V19.1875C33.3594 18.3698 33.5156 17.638 33.8281 16.9922C34.1406 16.3464 34.5885 15.8359 35.1719 15.4609C35.7552 15.0807 36.4583 14.8906 37.2812 14.8906C38.1094 14.8906 38.8151 15.0807 39.3984 15.4609C39.987 15.8359 40.4375 16.3464 40.75 16.9922C41.0625 17.638 41.2188 18.3698 41.2188 19.1875V19.3672C41.2188 20.1797 41.0625 20.9115 40.75 21.5625C40.4375 22.2083 39.9896 22.7188 39.4062 23.0938C38.8229 23.4688 38.1198 23.6562 37.2969 23.6562C36.4688 23.6562 35.7604 23.4688 35.1719 23.0938C34.5885 22.7188 34.1406 22.2083 33.8281 21.5625C33.5156 20.9115 33.3594 20.1797 33.3594 19.3672ZM35.2422 19.1875V19.3672C35.2422 19.8724 35.3125 20.3385 35.4531 20.7656C35.599 21.1875 35.8229 21.526 36.125 21.7812C36.4271 22.0312 36.8177 22.1562 37.2969 22.1562C37.7656 22.1562 38.151 22.0312 38.4531 21.7812C38.7552 21.526 38.9766 21.1875 39.1172 20.7656C39.263 20.3385 39.3359 19.8724 39.3359 19.3672V19.1875C39.3359 18.6875 39.263 18.2266 39.1172 17.8047C38.9714 17.3776 38.7474 17.0365 38.4453 16.7812C38.1484 16.5208 37.7604 16.3906 37.2812 16.3906C36.8073 16.3906 36.4193 16.5208 36.1172 16.7812C35.8203 17.0365 35.599 17.3776 35.4531 17.8047C35.3125 18.2266 35.2422 18.6875 35.2422 19.1875ZM48.2109 15.0469H49.9219V23.2656C49.9219 24.026 49.7604 24.6719 49.4375 25.2031C49.1146 25.7344 48.6641 26.138 48.0859 26.4141C47.5078 26.6953 46.8385 26.8359 46.0781 26.8359C45.7552 26.8359 45.3958 26.7891 45 26.6953C44.6094 26.6016 44.2292 26.4505 43.8594 26.2422C43.4948 26.0391 43.1901 25.7708 42.9453 25.4375L43.8281 24.3281C44.1302 24.6875 44.4635 24.9505 44.8281 25.1172C45.1927 25.2839 45.5755 25.3672 45.9766 25.3672C46.6172 25.3672 47.1198 25.1901 47.4844 24.8359C47.8542 24.4818 48.0391 23.9714 48.0391 23.3047V16.9609L48.2109 15.0469ZM42.4688 19.3672V19.2031C42.4688 18.3438 42.6042 17.5911 42.875 16.9453C43.151 16.2943 43.5417 15.7891 44.0469 15.4297C44.5521 15.0703 45.1536 14.8906 45.8516 14.8906C46.3984 14.8906 46.8646 14.9896 47.25 15.1875C47.6406 15.3854 47.9661 15.6693 48.2266 16.0391C48.487 16.4036 48.6901 16.8411 48.8359 17.3516C48.987 17.8568 49.099 18.4193 49.1719 19.0391V19.5625C49.0833 20.3646 48.9089 21.0755 48.6484 21.6953C48.3932 22.3099 48.0365 22.7917 47.5781 23.1406C47.1198 23.4844 46.5391 23.6562 45.8359 23.6562C45.1484 23.6562 44.5521 23.4714 44.0469 23.1016C43.5417 22.7266 43.151 22.2161 42.875 21.5703C42.6042 20.9245 42.4688 20.1901 42.4688 19.3672ZM44.3516 19.2031V19.3672C44.3516 19.8776 44.4193 20.3438 44.5547 20.7656C44.6953 21.1823 44.9089 21.5156 45.1953 21.7656C45.4818 22.0104 45.8516 22.1328 46.3047 22.1328C46.7474 22.1328 47.1094 22.0391 47.3906 21.8516C47.6771 21.6641 47.8958 21.4115 48.0469 21.0938C48.2031 20.7708 48.3125 20.4115 48.375 20.0156V18.6016C48.3438 18.2943 48.2786 18.0078 48.1797 17.7422C48.0859 17.4766 47.9583 17.2448 47.7969 17.0469C47.6354 16.8438 47.4323 16.6875 47.1875 16.5781C46.9427 16.4635 46.6536 16.4062 46.3203 16.4062C45.8672 16.4062 45.4948 16.5339 45.2031 16.7891C44.9115 17.0391 44.6953 17.375 44.5547 17.7969C44.4193 18.2188 44.3516 18.6875 44.3516 19.2031ZM53.8906 15.0469V23.5H52V15.0469H53.8906ZM51.875 12.8281C51.875 12.5417 51.9688 12.3047 52.1562 12.1172C52.349 11.9245 52.6146 11.8281 52.9531 11.8281C53.2865 11.8281 53.5495 11.9245 53.7422 12.1172C53.9349 12.3047 54.0312 12.5417 54.0312 12.8281C54.0312 13.1094 53.9349 13.3438 53.7422 13.5312C53.5495 13.7188 53.2865 13.8125 52.9531 13.8125C52.6146 13.8125 52.349 13.7188 52.1562 13.5312C51.9688 13.3438 51.875 13.1094 51.875 12.8281ZM57.8203 16.8516V23.5H55.9375V15.0469H57.7109L57.8203 16.8516ZM57.4844 18.9609L56.875 18.9531C56.8854 18.1458 57.0312 17.4375 57.3125 16.8281C57.5938 16.2188 57.9844 15.7448 58.4844 15.4062C58.9896 15.0625 59.5781 14.8906 60.25 14.8906C60.7969 14.8906 61.2708 14.9948 61.6719 15.2031C62.0729 15.4062 62.3828 15.7396 62.6016 16.2031C62.8255 16.6615 62.9375 17.2734 62.9375 18.0391V23.5H61.0469V18.0312C61.0469 17.625 60.987 17.3047 60.8672 17.0703C60.7526 16.8307 60.5833 16.6615 60.3594 16.5625C60.1406 16.4583 59.8672 16.4062 59.5391 16.4062C59.2161 16.4062 58.9271 16.474 58.6719 16.6094C58.4167 16.7448 58.2005 16.9297 58.0234 17.1641C57.8516 17.3984 57.7188 17.6693 57.625 17.9766C57.5312 18.2839 57.4844 18.612 57.4844 18.9609Z" fill="#FF5733"/>
</g>
<defs>
<filter id="filter0_d_3_653" x="21.2656" y="9.82812" width="45.6719" height="23.0078" filterUnits="userSpaceOnUse" color-interpolation-filters="sRGB">
<feFlood flood-opacity="0" result="BackgroundImageFix"/>
<feColorMatrix in="SourceAlpha" type="matrix" values="0 0 0 0 0 0 0 0 0 0 0 0 0 0 0 0 0 0 127 0" result="hardAlpha"/>
<feOffset dy="2"/>
<feGaussianBlur stdDeviation="2"/>
<feComposite in2="hardAlpha" operator="out"/>
<feColorMatrix type="matrix" values="0 0 0 0 0 0 0 0 0 0 0 0 0 0 0 0 0 0 0.2 0"/>
<feBlend mode="normal" in2="BackgroundImageFix" result="effect1_dropShadow_3_653"/>
<feBlend mode="normal" in="SourceGraphic" in2="effect1_dropShadow_3_653" result="shape"/>
</filter>
</defs>
</svg>
