<svg width="77" height="66" viewBox="0 0 77 66" fill="none" xmlns="http://www.w3.org/2000/svg">
<path d="M29.2194 15.5519C28.0694 10.3531 26.3637 7.03687 23.63 6.22875C23.1005 6.07429 22.5515 5.99725 22 6C20.3194 6 18.9931 7 16 7C13.0069 7 11.6781 6 9.99999 6C9.42545 5.99695 8.85329 6.07394 8.29999 6.22875C5.56249 7.03687 3.87124 10.3562 2.70812 15.5519C1.52062 20.8587 1.73562 25.0519 4.05687 25.8569C5.68187 26.4194 7.13499 25.2562 8.51124 23.5444C10.0737 21.5944 11.9981 20.9944 16 20.9944C20.0019 20.9944 21.8512 21.5944 23.4162 23.5444C24.7912 25.2575 26.2981 26.4062 27.88 25.8669C30.4437 24.9912 30.4075 20.9212 29.2194 15.5519Z" stroke="#FF5733" stroke-width="1.5" stroke-miterlimit="10"/>
<path d="M18.25 13.5C18.5261 13.5 18.75 13.7239 18.75 14C18.75 14.2761 18.5261 14.5 18.25 14.5C17.9739 14.5 17.75 14.2761 17.75 14C17.75 13.7239 17.9739 13.5 18.25 13.5Z" fill="black" stroke="#FF5733" stroke-width="1.5"/>
<path d="M20.9033 16.2598C21.0004 16.2406 21.1011 16.2501 21.1924 16.2881C21.2835 16.326 21.3612 16.3905 21.416 16.4727C21.4708 16.555 21.5002 16.6521 21.5 16.751C21.4997 16.8832 21.447 17.0101 21.3535 17.1035C21.2598 17.197 21.1324 17.25 21 17.25C20.9011 17.25 20.8039 17.221 20.7217 17.166C20.6396 17.1111 20.5759 17.0326 20.5381 16.9414C20.5003 16.8501 20.4905 16.7493 20.5098 16.6523C20.5291 16.5555 20.5767 16.4663 20.6465 16.3965C20.7165 16.3266 20.8062 16.2789 20.9033 16.2598Z" fill="black" stroke="#FF5733" stroke-width="1.5"/>
<path d="M21 10.75C21.2761 10.75 21.5 10.9739 21.5 11.25C21.5 11.5261 21.2761 11.75 21 11.75C20.7239 11.75 20.5 11.5261 20.5 11.25C20.5 10.9739 20.7239 10.75 21 10.75Z" fill="black" stroke="#FF5733" stroke-width="1.5"/>
<path d="M23.75 13.5C24.0261 13.5 24.25 13.7239 24.25 14C24.25 14.2761 24.0261 14.5 23.75 14.5C23.4739 14.5 23.25 14.2761 23.25 14C23.25 13.7239 23.4739 13.5 23.75 13.5Z" fill="black" stroke="#FF5733" stroke-width="1.5"/>
<path d="M10 11V17M13 14H7" stroke="#FF5733" stroke-width="1.5" stroke-linecap="round" stroke-linejoin="round"/>
<path d="M40.4141 14.9531H37.2734V13.9297H40.4141C41.0495 13.9297 41.5625 13.8281 41.9531 13.625C42.349 13.4219 42.638 13.1406 42.8203 12.7812C43.0026 12.4219 43.0938 12.0182 43.0938 11.5703C43.0938 11.1432 43.0026 10.7474 42.8203 10.3828C42.638 10.013 42.349 9.71615 41.9531 9.49219C41.5625 9.26823 41.0495 9.15625 40.4141 9.15625H37.6172V19.5H36.3828V8.125H40.4141C41.263 8.125 41.9766 8.27083 42.5547 8.5625C43.138 8.85417 43.5781 9.25781 43.875 9.77344C44.1771 10.2891 44.3281 10.8828 44.3281 11.5547C44.3281 12.2682 44.1771 12.8802 43.875 13.3906C43.5781 13.8958 43.138 14.2839 42.5547 14.5547C41.9766 14.8203 41.263 14.9531 40.4141 14.9531ZM47.3203 12.4141V19.5H46.1328V11.0469H47.2891L47.3203 12.4141ZM50.1406 10.9922L50.1172 12.0938C50.0078 12.0729 49.901 12.0599 49.7969 12.0547C49.6979 12.0443 49.5859 12.0391 49.4609 12.0391C48.9661 12.0391 48.5521 12.1484 48.2188 12.3672C47.8854 12.5859 47.6276 12.8828 47.4453 13.2578C47.2682 13.6328 47.1641 14.0599 47.1328 14.5391L46.7578 14.7188C46.7578 14.0104 46.8542 13.3672 47.0469 12.7891C47.2448 12.2109 47.5469 11.75 47.9531 11.4062C48.3594 11.0625 48.8776 10.8906 49.5078 10.8906C49.6224 10.8906 49.7422 10.901 49.8672 10.9219C49.9922 10.9427 50.0833 10.9661 50.1406 10.9922ZM52.8438 11.0469V19.5H51.6484V11.0469H52.8438ZM51.5156 8.70312C51.5156 8.5 51.5781 8.32812 51.7031 8.1875C51.8333 8.04167 52.0182 7.96875 52.2578 7.96875C52.4974 7.96875 52.6823 8.04167 52.8125 8.1875C52.9479 8.32812 53.0156 8.5 53.0156 8.70312C53.0156 8.90104 52.9479 9.07031 52.8125 9.21094C52.6823 9.35156 52.4974 9.42188 52.2578 9.42188C52.0182 9.42188 51.8333 9.35156 51.7031 9.21094C51.5781 9.07031 51.5156 8.90104 51.5156 8.70312ZM56.4531 12.7578V19.5H55.2578V11.0469H56.3906L56.4531 12.7578ZM56.2109 14.8516L55.6562 14.7188C55.6771 14 55.8203 13.3516 56.0859 12.7734C56.3516 12.1953 56.7292 11.737 57.2188 11.3984C57.7135 11.0599 58.3229 10.8906 59.0469 10.8906C59.8542 10.8906 60.5104 11.1224 61.0156 11.5859C61.5208 12.0495 61.7734 12.8099 61.7734 13.8672V19.5H60.5859V13.9219C60.5859 13.4219 60.5052 13.026 60.3438 12.7344C60.1823 12.4427 59.9557 12.2318 59.6641 12.1016C59.3776 11.9714 59.0417 11.9062 58.6562 11.9062C58.2031 11.9062 57.8203 11.9922 57.5078 12.1641C57.2005 12.3359 56.9505 12.5677 56.7578 12.8594C56.5703 13.1458 56.4323 13.4635 56.3438 13.8125C56.2604 14.1562 56.2161 14.5026 56.2109 14.8516ZM61.7578 14.0859L60.9609 14.2422C60.987 13.6589 61.1328 13.112 61.3984 12.6016C61.6641 12.0911 62.0417 11.6797 62.5312 11.3672C63.026 11.0495 63.6198 10.8906 64.3125 10.8906C64.9062 10.8906 65.4115 10.9974 65.8281 11.2109C66.25 11.4245 66.5703 11.7578 66.7891 12.2109C67.0078 12.6589 67.1172 13.2448 67.1172 13.9688V19.5H65.9219V13.9531C65.9219 13.4167 65.8411 13.0026 65.6797 12.7109C65.5182 12.4141 65.2917 12.2057 65 12.0859C64.7135 11.9661 64.3776 11.9062 63.9922 11.9062C63.6276 11.9062 63.3073 11.9714 63.0312 12.1016C62.7552 12.2266 62.5234 12.3958 62.3359 12.6094C62.1484 12.8177 62.0052 13.0495 61.9062 13.3047C61.8125 13.5599 61.763 13.8203 61.7578 14.0859ZM72.7891 19.6562C72.0286 19.6562 71.3594 19.4818 70.7812 19.1328C70.2031 18.7786 69.7526 18.2917 69.4297 17.6719C69.1068 17.0469 68.9453 16.3359 68.9453 15.5391V15.2109C68.9453 14.3151 69.1172 13.5443 69.4609 12.8984C69.8047 12.2526 70.2552 11.7578 70.8125 11.4141C71.375 11.0651 71.974 10.8906 72.6094 10.8906C73.3698 10.8906 74.0026 11.0651 74.5078 11.4141C75.013 11.7578 75.3906 12.2318 75.6406 12.8359C75.8906 13.4349 76.0156 14.1224 76.0156 14.8984V15.5078H69.6641V14.5156H74.8281V14.4141C74.8125 13.987 74.7266 13.5807 74.5703 13.1953C74.4141 12.8099 74.1745 12.4948 73.8516 12.25C73.5339 12.0052 73.1198 11.8828 72.6094 11.8828C72.125 11.8828 71.6953 12.0182 71.3203 12.2891C70.9505 12.5599 70.6615 12.9453 70.4531 13.4453C70.2448 13.9401 70.1406 14.5286 70.1406 15.2109V15.5391C70.1406 16.1172 70.25 16.6432 70.4688 17.1172C70.6927 17.5859 71.0078 17.9635 71.4141 18.25C71.8203 18.5312 72.2969 18.6719 72.8438 18.6719C73.349 18.6719 73.7865 18.5729 74.1562 18.375C74.526 18.1771 74.8542 17.8906 75.1406 17.5156L75.875 18.0938C75.599 18.5052 75.2135 18.8698 74.7188 19.1875C74.2292 19.5 73.5859 19.6562 72.7891 19.6562Z" fill="white"/>
<path d="M13.9863 45.6426V52.0664C13.7214 52.36 13.3132 52.6751 12.7617 53.0117C12.2174 53.3411 11.5299 53.624 10.6992 53.8604C9.86849 54.0967 8.89095 54.2148 7.7666 54.2148C6.38444 54.2148 5.17415 53.9212 4.13574 53.334C3.10449 52.7396 2.30241 51.8766 1.72949 50.7451C1.16374 49.6136 0.880859 48.2386 0.880859 46.6201V45.75C0.880859 44.1243 1.16732 42.7458 1.74023 41.6143C2.31315 40.4827 3.10091 39.6198 4.10352 39.0254C5.11328 38.431 6.26628 38.1338 7.5625 38.1338C9.00195 38.1338 10.1729 38.363 11.0752 38.8213C11.9775 39.2725 12.6615 39.8991 13.127 40.7012C13.5924 41.4961 13.8753 42.4163 13.9756 43.4619H10.3555C10.2839 42.9463 10.1478 42.5094 9.94727 42.1514C9.75391 41.7861 9.47461 41.5104 9.10938 41.3242C8.74414 41.1309 8.27148 41.0342 7.69141 41.0342C7.08984 41.0342 6.56348 41.2061 6.1123 41.5498C5.66829 41.8936 5.32454 42.4128 5.08105 43.1074C4.83757 43.8021 4.71582 44.6758 4.71582 45.7285V46.6201C4.71582 47.6585 4.8304 48.5286 5.05957 49.2305C5.2959 49.9251 5.65755 50.4479 6.14453 50.7988C6.63867 51.1426 7.26888 51.3145 8.03516 51.3145C8.4362 51.3145 8.77995 51.2822 9.06641 51.2178C9.35286 51.1462 9.58919 51.0602 9.77539 50.96C9.96875 50.8525 10.1156 50.7523 10.2158 50.6592V48.2314H7.59473V45.6426H13.9863ZM22.0537 51.0781V46.2871C22.0537 45.8001 21.9463 45.4134 21.7314 45.127C21.5238 44.8333 21.1693 44.6865 20.668 44.6865C20.3958 44.6865 20.1631 44.7331 19.9697 44.8262C19.7764 44.9193 19.6296 45.0589 19.5293 45.2451C19.429 45.4313 19.3789 45.6676 19.3789 45.9541H15.7588C15.7588 45.2308 15.9665 44.5863 16.3818 44.0205C16.8044 43.4476 17.3988 42.9964 18.165 42.667C18.9313 42.3304 19.8301 42.1621 20.8613 42.1621C21.7852 42.1621 22.6087 42.3161 23.332 42.624C24.0625 42.932 24.639 43.3939 25.0615 44.0098C25.484 44.6185 25.6953 45.3848 25.6953 46.3086V51.0674C25.6953 51.8265 25.7383 52.403 25.8242 52.7969C25.9102 53.1836 26.0319 53.5238 26.1895 53.8174V54H22.5586C22.3867 53.6419 22.2578 53.2051 22.1719 52.6895C22.0931 52.1667 22.0537 51.6296 22.0537 51.0781ZM22.4941 46.8994L22.5156 48.833H20.915C20.2419 48.833 19.7728 49.0049 19.5078 49.3486C19.2428 49.6924 19.1104 50.0863 19.1104 50.5303C19.1104 50.8597 19.2214 51.1283 19.4434 51.3359C19.6725 51.5365 19.9554 51.6367 20.292 51.6367C20.693 51.6367 21.0332 51.5615 21.3125 51.4111C21.599 51.2536 21.8174 51.0638 21.9678 50.8418C22.1182 50.6198 22.1934 50.4121 22.1934 50.2188L22.9883 51.7012C22.8451 51.9876 22.6803 52.2777 22.4941 52.5713C22.3151 52.8649 22.0895 53.137 21.8174 53.3877C21.5524 53.6312 21.2266 53.8317 20.8398 53.9893C20.4531 54.1396 19.984 54.2148 19.4326 54.2148C18.7165 54.2148 18.0576 54.068 17.4561 53.7744C16.8617 53.4808 16.3854 53.0726 16.0273 52.5498C15.6693 52.0199 15.4902 51.4111 15.4902 50.7236C15.4902 49.5277 15.9307 48.5931 16.8115 47.9199C17.6924 47.2396 19.0674 46.8994 20.9365 46.8994H22.4941ZM31.3564 44.8369V54H27.7363V42.377H31.1309L31.3564 44.8369ZM30.916 47.791L30.0889 47.8125C30.0889 46.724 30.2607 45.7536 30.6045 44.9014C30.9482 44.0492 31.4531 43.3796 32.1191 42.8926C32.7852 42.4056 33.6016 42.1621 34.5684 42.1621C35.5853 42.1621 36.4053 42.4808 37.0283 43.1182C37.6514 43.7484 37.9629 44.7904 37.9629 46.2441V54H34.3428V46.7061C34.3428 46.2119 34.2855 45.8395 34.1709 45.5889C34.0635 45.3382 33.9059 45.1699 33.6982 45.084C33.4906 44.998 33.2363 44.9551 32.9355 44.9551C32.6204 44.9551 32.3376 45.0267 32.0869 45.1699C31.8363 45.3132 31.6214 45.5137 31.4424 45.7715C31.2705 46.0221 31.138 46.3193 31.0449 46.6631C30.959 47.0068 30.916 47.3828 30.916 47.791ZM37.5547 47.791L36.5449 47.8125C36.5449 46.724 36.7061 45.7536 37.0283 44.9014C37.3577 44.0492 37.8483 43.3796 38.5 42.8926C39.1589 42.4056 39.9753 42.1621 40.9492 42.1621C41.6582 42.1621 42.2848 42.3053 42.8291 42.5918C43.3805 42.8783 43.8102 43.3509 44.1182 44.0098C44.4261 44.6686 44.5801 45.5602 44.5801 46.6846V54H40.9492V46.6846C40.9492 46.2048 40.8919 45.8431 40.7773 45.5996C40.6699 45.349 40.5124 45.1807 40.3047 45.0947C40.097 45.0016 39.8499 44.9551 39.5635 44.9551C39.2197 44.9551 38.9225 45.0267 38.6719 45.1699C38.4212 45.3132 38.21 45.5137 38.0381 45.7715C37.8734 46.0221 37.7516 46.3193 37.6729 46.6631C37.5941 47.0068 37.5547 47.3828 37.5547 47.791ZM50.4775 42.377V54H46.8467V42.377H50.4775ZM46.6318 39.3799C46.6318 38.8643 46.818 38.4417 47.1904 38.1123C47.5628 37.7829 48.0462 37.6182 48.6406 37.6182C49.235 37.6182 49.7184 37.7829 50.0908 38.1123C50.4632 38.4417 50.6494 38.8643 50.6494 39.3799C50.6494 39.8955 50.4632 40.318 50.0908 40.6475C49.7184 40.9769 49.235 41.1416 48.6406 41.1416C48.0462 41.1416 47.5628 40.9769 47.1904 40.6475C46.818 40.318 46.6318 39.8955 46.6318 39.3799ZM56.2676 44.8584V54H52.6475V42.377H56.042L56.2676 44.8584ZM55.8379 47.791L54.9893 47.8125C54.9893 46.6237 55.1755 45.6104 55.5479 44.7725C55.9202 43.9274 56.443 43.2829 57.1162 42.8389C57.7894 42.3877 58.5736 42.1621 59.4688 42.1621C60.1921 42.1621 60.8258 42.3053 61.3701 42.5918C61.9215 42.8783 62.3512 43.3509 62.6592 44.0098C62.9671 44.6686 63.1211 45.5602 63.1211 46.6846V54H59.4795V46.6738C59.4795 46.2083 59.415 45.8538 59.2861 45.6104C59.1572 45.3597 58.971 45.1878 58.7275 45.0947C58.484 45.0016 58.1868 44.9551 57.8359 44.9551C57.4635 44.9551 57.1484 45.0267 56.8906 45.1699C56.6328 45.3132 56.4251 45.5137 56.2676 45.7715C56.1172 46.0221 56.0062 46.3193 55.9346 46.6631C55.8701 47.0068 55.8379 47.3828 55.8379 47.791ZM72.4346 42.377H75.7217V53.5488C75.7217 54.623 75.4746 55.5326 74.9805 56.2773C74.4863 57.0293 73.7952 57.5986 72.9072 57.9854C72.0264 58.3792 70.9951 58.5762 69.8135 58.5762C69.2907 58.5762 68.7572 58.5081 68.2129 58.3721C67.6686 58.2432 67.1602 58.0498 66.6875 57.792C66.2148 57.5342 65.8174 57.2155 65.4951 56.8359L67.0098 54.709C67.3034 55.0384 67.6722 55.3177 68.1162 55.5469C68.5602 55.7832 69.083 55.9014 69.6846 55.9014C70.4652 55.9014 71.0596 55.6937 71.4678 55.2783C71.8831 54.863 72.0908 54.2793 72.0908 53.5273V45.127L72.4346 42.377ZM64.7109 48.3281V48.1025C64.7109 46.9209 64.9007 45.8861 65.2803 44.998C65.667 44.1029 66.2148 43.4082 66.9238 42.9141C67.64 42.4128 68.4886 42.1621 69.4697 42.1621C70.2646 42.1621 70.9163 42.3161 71.4248 42.624C71.9404 42.9248 72.3522 43.3473 72.6602 43.8916C72.9753 44.4359 73.2188 45.0732 73.3906 45.8037C73.5697 46.527 73.7201 47.3076 73.8418 48.1455V48.4141C73.6842 49.4596 73.4408 50.4229 73.1113 51.3037C72.7819 52.1846 72.3236 52.89 71.7363 53.4199C71.1491 53.9499 70.3864 54.2148 69.4482 54.2148C68.4743 54.2148 67.6328 53.9606 66.9238 53.4521C66.2148 52.9365 65.667 52.2347 65.2803 51.3467C64.9007 50.4587 64.7109 49.4525 64.7109 48.3281ZM68.3311 48.1025V48.3281C68.3311 48.9082 68.4062 49.4346 68.5566 49.9072C68.707 50.3727 68.9326 50.7415 69.2334 51.0137C69.5342 51.2858 69.9137 51.4219 70.3721 51.4219C70.8949 51.4219 71.3174 51.3109 71.6396 51.0889C71.9619 50.8669 72.1947 50.5518 72.3379 50.1436C72.4811 49.7354 72.542 49.2555 72.5205 48.7041V47.8555C72.5348 47.3828 72.5026 46.9674 72.4238 46.6094C72.3451 46.2441 72.2197 45.9398 72.0479 45.6963C71.8831 45.4528 71.6611 45.2702 71.3818 45.1484C71.1097 45.0195 70.7803 44.9551 70.3936 44.9551C69.9424 44.9551 69.5628 45.0947 69.2549 45.374C68.9541 45.6462 68.7249 46.0186 68.5674 46.4912C68.4098 46.9639 68.3311 47.501 68.3311 48.1025Z" fill="#FF5733"/>
</svg>
