<svg width="104" height="40" viewBox="0 0 104 40" fill="none" xmlns="http://www.w3.org/2000/svg">
<rect width="104" height="40" rx="16" fill="#FF5733"/>
<g filter="url(#filter0_d_3_652)">
<path d="M31.4531 20.5703C31.4531 20.2578 31.3854 19.9896 31.25 19.7656C31.1198 19.5417 30.8776 19.3359 30.5234 19.1484C30.1745 18.9609 29.6693 18.7656 29.0078 18.5625C28.2891 18.3438 27.6458 18.0859 27.0781 17.7891C26.5156 17.487 26.0703 17.1198 25.7422 16.6875C25.4141 16.25 25.25 15.7214 25.25 15.1016C25.25 14.487 25.4193 13.9453 25.7578 13.4766C26.1016 13.0078 26.5781 12.6406 27.1875 12.375C27.7969 12.1042 28.5026 11.9688 29.3047 11.9688C30.1536 11.9688 30.8828 12.125 31.4922 12.4375C32.1016 12.75 32.5703 13.1693 32.8984 13.6953C33.2318 14.2214 33.3984 14.8021 33.3984 15.4375H31.4531C31.4531 14.8802 31.2734 14.4193 30.9141 14.0547C30.5547 13.6901 30.0104 13.5078 29.2812 13.5078C28.5833 13.5078 28.0625 13.6615 27.7188 13.9688C27.3802 14.276 27.2109 14.6536 27.2109 15.1016C27.2109 15.5286 27.4115 15.8854 27.8125 16.1719C28.2135 16.4531 28.8307 16.7161 29.6641 16.9609C30.9245 17.3307 31.8646 17.7943 32.4844 18.3516C33.1094 18.9089 33.4219 19.6432 33.4219 20.5547C33.4219 21.1953 33.2526 21.7474 32.9141 22.2109C32.5807 22.6745 32.1094 23.0312 31.5 23.2812C30.8958 23.5312 30.1849 23.6562 29.3672 23.6562C28.8203 23.6562 28.2812 23.5833 27.75 23.4375C27.224 23.2865 26.7448 23.0625 26.3125 22.7656C25.8802 22.4688 25.5365 22.0964 25.2812 21.6484C25.026 21.1953 24.8984 20.6667 24.8984 20.0625H26.8594C26.8594 20.5521 26.9714 20.9479 27.1953 21.25C27.4193 21.5521 27.7214 21.7734 28.1016 21.9141C28.4818 22.0547 28.9036 22.125 29.3672 22.125C30.0547 22.125 30.5729 21.9818 30.9219 21.6953C31.276 21.4089 31.4531 21.0339 31.4531 20.5703ZM34.9688 12.8281C34.9688 12.5417 35.0625 12.3047 35.25 12.1172C35.4427 11.9245 35.7083 11.8281 36.0469 11.8281C36.3802 11.8281 36.6432 11.9245 36.8359 12.1172C37.0286 12.3047 37.125 12.5417 37.125 12.8281C37.125 13.1094 37.0286 13.3438 36.8359 13.5312C36.6432 13.7188 36.3802 13.8125 36.0469 13.8125C35.7083 13.8125 35.4427 13.7188 35.25 13.5312C35.0625 13.3438 34.9688 13.1094 34.9688 12.8281ZM36.9844 15.0469V23.5H35.0938V15.0469H36.9844ZM38.7188 19.3672V19.2031C38.7188 18.3438 38.8542 17.5911 39.125 16.9453C39.401 16.2995 39.7917 15.7969 40.2969 15.4375C40.8021 15.0729 41.4036 14.8906 42.1016 14.8906C42.6172 14.8906 43.0599 14.9792 43.4297 15.1562C43.8047 15.3333 44.1224 15.5833 44.3828 15.9062L44.4609 15.0469H46.1719V23.2656C46.1719 24.026 46.0104 24.6719 45.6875 25.2031C45.3646 25.7344 44.9141 26.138 44.3359 26.4141C43.7578 26.6953 43.0885 26.8359 42.3281 26.8359C42.0052 26.8359 41.6458 26.7891 41.25 26.6953C40.8594 26.6016 40.4792 26.4505 40.1094 26.2422C39.7448 26.0391 39.4401 25.7708 39.1953 25.4375L40.0781 24.3281C40.3802 24.6875 40.7135 24.9505 41.0781 25.1172C41.4427 25.2839 41.8255 25.3672 42.2266 25.3672C42.8672 25.3672 43.3698 25.1901 43.7344 24.8359C44.1042 24.4818 44.2891 23.9714 44.2891 23.3047V22.7031C44.0234 23.0052 43.7083 23.2396 43.3438 23.4062C42.9844 23.5729 42.5651 23.6562 42.0859 23.6562C41.3984 23.6562 40.8021 23.4714 40.2969 23.1016C39.7917 22.7266 39.401 22.2161 39.125 21.5703C38.8542 20.9245 38.7188 20.1901 38.7188 19.3672ZM40.6016 19.2031V19.3672C40.6016 19.8776 40.6693 20.3438 40.8047 20.7656C40.9453 21.1823 41.1589 21.5156 41.4453 21.7656C41.7318 22.0104 42.1016 22.1328 42.5547 22.1328C42.9922 22.1328 43.349 22.0417 43.625 21.8594C43.9062 21.6719 44.1276 21.4245 44.2891 21.1172V17.3984C44.1276 17.0964 43.9062 16.8568 43.625 16.6797C43.349 16.4974 42.9974 16.4062 42.5703 16.4062C42.1172 16.4062 41.7448 16.5339 41.4531 16.7891C41.1667 17.0391 40.9531 17.375 40.8125 17.7969C40.6719 18.2188 40.6016 18.6875 40.6016 19.2031ZM51.7109 16.4062C51.3151 16.4062 50.9714 16.5052 50.6797 16.7031C50.388 16.901 50.1589 17.1641 49.9922 17.4922V23.5H48.1094V15.0469H49.8828L49.9453 16.0625C50.2422 15.6927 50.599 15.4062 51.0156 15.2031C51.4375 14.9948 51.9062 14.8906 52.4219 14.8906C53.2396 14.8906 53.8906 15.1276 54.375 15.6016C54.8646 16.0755 55.1094 16.888 55.1094 18.0391V23.5H53.2188V18.0312C53.2188 17.4271 53.0885 17.0052 52.8281 16.7656C52.5729 16.526 52.2005 16.4062 51.7109 16.4062ZM67.7578 12.125H69.7109V19.7266C69.7109 20.5911 69.5234 21.3151 69.1484 21.8984C68.7734 22.4818 68.2656 22.9219 67.625 23.2188C66.9844 23.5104 66.2656 23.6562 65.4688 23.6562C64.651 23.6562 63.9219 23.5104 63.2812 23.2188C62.6406 22.9219 62.1354 22.4818 61.7656 21.8984C61.401 21.3151 61.2188 20.5911 61.2188 19.7266V12.125H63.1719V19.7266C63.1719 20.5443 63.3776 21.1458 63.7891 21.5312C64.2057 21.9115 64.7656 22.1016 65.4688 22.1016C66.1719 22.1016 66.7292 21.9115 67.1406 21.5312C67.5521 21.1458 67.7578 20.5443 67.7578 19.7266V12.125ZM79.0547 19.1953V19.3594C79.0547 20.1771 78.9271 20.9115 78.6719 21.5625C78.4219 22.2083 78.0521 22.7188 77.5625 23.0938C77.0729 23.4688 76.4766 23.6562 75.7734 23.6562C75.2943 23.6562 74.8698 23.5755 74.5 23.4141C74.1302 23.2474 73.8125 23.013 73.5469 22.7109V26.75H71.6641V15.0469H73.3984L73.4766 15.9297C73.7474 15.5964 74.0703 15.3411 74.4453 15.1641C74.8255 14.9818 75.263 14.8906 75.7578 14.8906C76.4714 14.8906 77.0729 15.0703 77.5625 15.4297C78.0521 15.7891 78.4219 16.2917 78.6719 16.9375C78.9271 17.5833 79.0547 18.3359 79.0547 19.1953ZM77.1719 19.3594V19.1953C77.1719 18.6797 77.1068 18.2109 76.9766 17.7891C76.8464 17.3672 76.638 17.0312 76.3516 16.7812C76.0703 16.5312 75.7031 16.4062 75.25 16.4062C74.8229 16.4062 74.4714 16.4974 74.1953 16.6797C73.9193 16.862 73.7031 17.1068 73.5469 17.4141V21.1406C73.7031 21.4427 73.9193 21.6875 74.1953 21.875C74.4714 22.0625 74.8281 22.1562 75.2656 22.1562C75.7188 22.1562 76.0833 22.0286 76.3594 21.7734C76.6406 21.5182 76.8464 21.1797 76.9766 20.7578C77.1068 20.3307 77.1719 19.8646 77.1719 19.3594Z" fill="white"/>
</g>
<defs>
<filter id="filter0_d_3_652" x="20.8984" y="9.82812" width="62.1562" height="23.0078" filterUnits="userSpaceOnUse" color-interpolation-filters="sRGB">
<feFlood flood-opacity="0" result="BackgroundImageFix"/>
<feColorMatrix in="SourceAlpha" type="matrix" values="0 0 0 0 0 0 0 0 0 0 0 0 0 0 0 0 0 0 127 0" result="hardAlpha"/>
<feOffset dy="2"/>
<feGaussianBlur stdDeviation="2"/>
<feComposite in2="hardAlpha" operator="out"/>
<feColorMatrix type="matrix" values="0 0 0 0 0 0 0 0 0 0 0 0 0 0 0 0 0 0 0.2 0"/>
<feBlend mode="normal" in2="BackgroundImageFix" result="effect1_dropShadow_3_652"/>
<feBlend mode="normal" in="SourceGraphic" in2="effect1_dropShadow_3_652" result="shape"/>
</filter>
</defs>
</svg>
