<svg width="102" height="36" viewBox="0 0 102 36" fill="none" xmlns="http://www.w3.org/2000/svg">
<g filter="url(#filter0_d_332_3474)">
<path d="M20.7793 19.626L23.8145 11.0469H24.9834L21.292 21H20.4375L20.7793 19.626ZM17.7852 11.0469L20.7998 19.626L21.1484 21H20.3008L16.6162 11.0469H17.7852ZM27.3418 13.6035V21H26.2959V13.6035H27.3418ZM26.1797 11.5527C26.1797 11.375 26.2344 11.2246 26.3438 11.1016C26.4577 10.974 26.6195 10.9102 26.8291 10.9102C27.0387 10.9102 27.2005 10.974 27.3145 11.1016C27.4329 11.2246 27.4922 11.375 27.4922 11.5527C27.4922 11.7259 27.4329 11.874 27.3145 11.9971C27.2005 12.1201 27.0387 12.1816 26.8291 12.1816C26.6195 12.1816 26.4577 12.1201 26.3438 11.9971C26.2344 11.874 26.1797 11.7259 26.1797 11.5527ZM32.4482 21.1367C31.7829 21.1367 31.1973 20.984 30.6914 20.6787C30.1855 20.3688 29.7913 19.9427 29.5088 19.4004C29.2262 18.8535 29.085 18.2314 29.085 17.5342V17.2471C29.085 16.4632 29.2354 15.7887 29.5361 15.2236C29.8369 14.6585 30.2311 14.2256 30.7188 13.9248C31.2109 13.6195 31.735 13.4668 32.291 13.4668C32.9564 13.4668 33.5101 13.6195 33.9521 13.9248C34.3942 14.2256 34.7246 14.6403 34.9434 15.1689C35.1621 15.693 35.2715 16.2946 35.2715 16.9736V17.5068H29.7139V16.6387H34.2324V16.5498C34.2188 16.1761 34.1436 15.8206 34.0068 15.4834C33.8701 15.1462 33.6605 14.8704 33.3779 14.6562C33.0999 14.4421 32.7376 14.335 32.291 14.335C31.8672 14.335 31.4912 14.4535 31.1631 14.6904C30.8395 14.9274 30.5866 15.2646 30.4043 15.7021C30.222 16.1351 30.1309 16.6501 30.1309 17.2471V17.5342C30.1309 18.04 30.2266 18.5003 30.418 18.915C30.6139 19.3252 30.8896 19.6556 31.2451 19.9062C31.6006 20.1523 32.0176 20.2754 32.4961 20.2754C32.9382 20.2754 33.321 20.1888 33.6445 20.0156C33.9681 19.8424 34.2552 19.5918 34.5059 19.2637L35.1484 19.7695C34.9069 20.1296 34.5697 20.4486 34.1367 20.7266C33.7083 21 33.1455 21.1367 32.4482 21.1367ZM38.7715 19.4824L40.6104 13.6035H41.3213L41.0684 14.9707L39.168 21H38.4707L38.7715 19.4824ZM37.2061 13.6035L38.7988 19.5303L39.0244 21H38.2998L36.1533 13.6035H37.2061ZM43.3379 19.4961L44.876 13.6035H45.9219L43.7754 21H43.0576L43.3379 19.4961ZM41.4717 13.6035L43.2764 19.4004L43.6045 21H42.9141L40.9658 14.9639L40.7197 13.6035H41.4717ZM54.7744 11.7852L51.4043 21H50.2969L54.0703 11.0469H54.8154L54.7744 11.7852ZM57.7275 21L54.3506 11.7852L54.3164 11.0469H55.0547L58.8418 21H57.7275ZM57.3311 17.4043V18.2998H51.8896V17.4043H57.3311ZM61.1934 10.5V21H60.1475V10.5H61.1934ZM64.4746 10.5V21H63.4287V10.5H64.4746Z" fill="#FF5733"/>
</g>
<path d="M75.6 25.2L74.48 24L80.4 18L74.48 12L75.6 10.8L82.8 18L75.6 25.2Z" fill="#FF5733"/>
<defs>
<filter id="filter0_d_332_3474" x="12.6162" y="8.5" width="55.8584" height="18.6367" filterUnits="userSpaceOnUse" color-interpolation-filters="sRGB">
<feFlood flood-opacity="0" result="BackgroundImageFix"/>
<feColorMatrix in="SourceAlpha" type="matrix" values="0 0 0 0 0 0 0 0 0 0 0 0 0 0 0 0 0 0 127 0" result="hardAlpha"/>
<feOffset dy="2"/>
<feGaussianBlur stdDeviation="2"/>
<feComposite in2="hardAlpha" operator="out"/>
<feColorMatrix type="matrix" values="0 0 0 0 0 0 0 0 0 0 0 0 0 0 0 0 0 0 0.2 0"/>
<feBlend mode="normal" in2="BackgroundImageFix" result="effect1_dropShadow_332_3474"/>
<feBlend mode="normal" in="SourceGraphic" in2="effect1_dropShadow_332_3474" result="shape"/>
</filter>
</defs>
</svg>
